<svg xmlns="http://www.w3.org/2000/svg" viewBox="5 146.9 887.4 521">
<!-- Generated: GPT Image 2 (fal.ai) → Quiver Arrow 1.1 vectorization -->
  <style type="text/css">
    .cls-0 { fill: url(#SVGID_1_); }
    .cls-1 { fill: #FFFFFF; }
    .cls-2 { opacity: 0.3; enable-background: new; }
    .cls-3 { fill: #AEDBF7; }
    .cls-4 { fill: none; stroke: #BBDCE8; stroke-width: 6; stroke-miterlimit: 10; }
    .cls-5 { fill: url(#SVGID_2_); }
    .cls-6 { fill: url(#SVGID_3_); }
    .cls-7 { opacity: 0.74; fill: #230666; enable-background: new; }
    .cls-8 { fill: url(#SVGID_4_); }
    .cls-9 { fill: url(#SVGID_5_); }
  </style>
  <defs>
    <linearGradient id="SVGID_1_" x1="-18.06" x2="210.4" y1="418.5" y2="418.5" gradientTransform="matrix(1 0 0 -1 0 1062)" gradientUnits="userSpaceOnUse">
      <stop stop-color="#000C1E" offset="0"/>
      <stop stop-color="#fff" offset=".8452"/>
    </linearGradient>
    <radialGradient id="SVGID_2_" cx="316.8" cy="404.5" r="113.6" gradientTransform="matrix(1 0 0 -1 0 1062)" gradientUnits="userSpaceOnUse">
      <stop stop-color="#fff" offset="0"/>
      <stop stop-color="#6EC2FB" offset=".8315"/>
    </radialGradient>
    <linearGradient id="SVGID_3_" x1="563.5" x2="856.5" y1="375" y2="831.4" gradientTransform="matrix(1 0 0 -1 0 1062)" gradientUnits="userSpaceOnUse">
      <stop stop-color="#CF1197" stop-opacity="0" offset=".01"/>
      <stop stop-color="#920064" offset=".2288"/>
      <stop stop-color="#BE007D" offset=".5044"/>
      <stop stop-color="#4000AB" offset=".7497"/>
      <stop stop-color="#00061F" stop-opacity="0" offset="1"/>
    </linearGradient>
    <linearGradient id="SVGID_4_" x1="549.6" x2="890.9" y1="403.7" y2="656" gradientTransform="matrix(1 0 0 -1 0 1062)" gradientUnits="userSpaceOnUse">
      <stop stop-color="#00FFE6" offset="0"/>
      <stop stop-color="#0091EE" offset=".4103"/>
      <stop stop-color="#001197" offset=".7497"/>
      <stop stop-color="#00061F" stop-opacity="0" offset="1"/>
    </linearGradient>
    <linearGradient id="SVGID_5_" x1="664" x2="748.6" y1="294.5" y2="565.3" gradientTransform="matrix(1 0 0 -1 0 1062)" gradientUnits="userSpaceOnUse">
      <stop stop-color="#AA6D00" offset="0"/>
      <stop stop-color="#FE9F00" offset=".3105"/>
      <stop stop-color="#FCBD00" offset=".408"/>
      <stop stop-color="#FAAE00" offset=".6777"/>
      <stop stop-color="#00C85A" offset="1"/>
    </linearGradient>
    <linearGradient id="SVGID_6_" x1="498.9" x2="696" y1="424.9" y2="239.7" gradientTransform="matrix(1 0 0 -1 0 1062)" gradientUnits="userSpaceOnUse">
      <stop stop-color="#FF7321" offset=".1011"/>
      <stop stop-color="#CB2200" offset=".4908"/>
      <stop stop-color="#AC2717" offset=".8082"/>
      <stop stop-color="#740700" offset=".9438"/>
    </linearGradient>
    <linearGradient id="SVGID_7_" x1="378.1" x2="453" y1="788.2" y2="663.7" gradientTransform="matrix(1 0 0 -1 0 1062)" gradientUnits="userSpaceOnUse">
      <stop stop-color="#330F82" offset="0"/>
      <stop stop-color="#CBDFFF" offset=".3848"/>
      <stop stop-color="#CFCAEA" offset=".648"/>
      <stop offset="1"/>
    </linearGradient>
    <linearGradient id="SVGID_8_" x1="444.1" x2="548.3" y1="720.4" y2="549.6" gradientTransform="matrix(1 0 0 -1 0 1062)" gradientUnits="userSpaceOnUse">
      <stop stop-color="#004678" offset=".0861"/>
      <stop stop-color="#00143F" offset=".4908"/>
      <stop stop-color="#021336" offset=".8082"/>
      <stop stop-color="#00001C" offset=".9438"/>
    </linearGradient>
    <linearGradient id="SVGID_9_" x1="360.3" x2="426.1" y1="899.4" y2="826.2" gradientTransform="matrix(1 0 0 -1 0 1062)" gradientUnits="userSpaceOnUse">
      <stop stop-color="#472BCC" offset="0"/>
      <stop stop-color="#4622BC" offset=".4363"/>
      <stop stop-color="#2714B0" offset=".7545"/>
      <stop stop-color="#340BA6" offset="1"/>
    </linearGradient>
    <linearGradient id="SVGID_10_" x1="472" x2="509.1" y1="662.8" y2="662.8" gradientTransform="matrix(1 0 0 -1 0 1062)" gradientUnits="userSpaceOnUse">
      <stop stop-color="#bbd" offset=".0861"/>
      <stop stop-color="#7265B8" offset=".4908"/>
      <stop stop-color="#6237B0" offset=".8082"/>
      <stop stop-color="#000035" offset=".9438"/>
    </linearGradient>
    <linearGradient id="SVGID_11_" x1="437.1" x2="485.2" y1="678.1" y2="678.1" gradientTransform="matrix(1 0 0 -1 0 1062)" gradientUnits="userSpaceOnUse">
      <stop stop-color="#0005BA" offset="0"/>
      <stop stop-color="#00ADE4" offset=".3646"/>
      <stop stop-color="#03DEDE" offset=".6667"/>
      <stop stop-color="#14DAE6" offset="1"/>
    </linearGradient>
    <linearGradient id="SVGID_14_" x1="199.6" x2="265.7" y1="462.4" y2="467.9" gradientTransform="matrix(1 0 0 -1 0 1062)" gradientUnits="userSpaceOnUse">
      <stop stop-color="#583C72" offset=".091"/>
      <stop stop-color="#B38DCD" offset=".4908"/>
      <stop stop-color="#8E5998" offset=".8082"/>
      <stop stop-color="#452966" offset=".9438"/>
    </linearGradient>
    <linearGradient id="SVGID_15_" x1="449.7" x2="447.9" y1="363.5" y2="160" gradientTransform="matrix(1 0 0 -1 0 1062)" gradientUnits="userSpaceOnUse">
      <stop stop-color="#056DE0" offset="0"/>
      <stop stop-color="#39017F" offset=".2808"/>
      <stop stop-color="#000727" offset=".6212"/>
      <stop stop-color="#000004" offset=".9438"/>
    </linearGradient>
    <linearGradient id="SVGID_16_" x1="559.8" x2="892" y1="307.6" y2="224.3" gradientTransform="matrix(1 0 0 -1 0 1062)" gradientUnits="userSpaceOnUse">
      <stop stop-color="#000203" offset=".0384"/>
      <stop stop-color="#EE2D01" offset=".4856"/>
      <stop stop-color="#994C11" offset=".7627"/>
      <stop stop-color="#340A00" offset="1"/>
    </linearGradient>
  </defs>
  <!-- Incoming beam -->
  <path class="cls-0" d="m208 390-212-3v9l207 4c0-0.1 8.1-7.3 5-10z"/>
  <!-- Prism body -->
  <polygon points="108.9 585.7 192.7 558.3 371.4 207.9 340.8 144.9"/>
  <path d="m340.5 144.1 1.6-0.3 243.7 466.2h-2.8l-242.5-465.9z" fill="#004BFF"/>
  <polygon class="cls-1" points="340.8 146.9 383 221 383.6 219.9 341.6 144.9"/>
  <polyline class="cls-2" points="352.5 152.8 340.8 151.4 170.7 479.3 110 585"/>
  <path class="cls-3" d="m139 524c0.8-0.4 6-5.1 6-5.1l42.9 28.5-3.8 4.7-45.1-28.1z"/>
  <line class="cls-4" x1="186" x2="175" y1="563.5" y2="589"/>
  <!-- Prism glass glow -->
  <polygon class="cls-5" points="265 417 304.3 436.3 468.3 409.8 464.6 403.3 309.5 426.2 267 410.8"/>
  <!-- Spectrum: violet/magenta -->
  <path class="cls-6" d="m472 386 420-142v101l-399 54h-21s-1.6-9.9 0-13z"/>
  <polygon class="cls-7" points="472 392.3 585.8 609 634.9 580.1 475.6 390.9"/>
  <!-- Spectrum: cyan/blue -->
  <polygon class="cls-8" points="472 386.8 482.4 404.9 892 383.5 892 344"/>
  <!-- Spectrum: amber/green -->
  <path class="cls-9" d="m472.5 391.4 6.7 11.2 412.8 117.4v-140l-412.6 18.2-6.9-6.8z"/>
  <path d="m479 397 5 7 408 95v-31l-413-71z" fill="#00BB5B"/>
  <polygon points="477 394 601 516.8 610.7 515.4 479.5 396.8" fill="#FFEB00"/>
  <!-- Spectrum: orange/red -->
  <path d="m475.6 396.8 98.4 122.2h19.5l56.5 55.5-64 32.5" fill="url(#SVGID_6_)"/>
  <path class="cls-3" d="m109.5 587.5c-0.5 0.5 1.5 3.5 1.5 3.5l475 21-2-3-474.5-21.5z"/>
  <polygon class="cls-3" points="341.5 147 352 152 466 390 464 389"/>
  <!-- Internal light path -->
  <polyline points="341.5 151.4 399 245 472 386.8 475.6 393 418.1 279.7 380.1 213.9 355 159 342 153" fill="url(#SVGID_7_)"/>
  <path d="m470 390 15.2 1 77.9 127.4 22.2 41.6-147.3-338.6c-18-4.4-38 22.6-38 22.6l70 146z" fill="url(#SVGID_8_)"/>
  <polygon points="355 159 432.5 218.7 400 241 342 153" fill="url(#SVGID_9_)"/>
  <polygon points="352 154 369 167 359 164" fill="#98CDFF"/>
  <polygon points="342 153 355 159 358 166" fill="#AAAAFD"/>
  <path d="m397.3 241.7 2.7 3.3 31-25-0.2-2c0.1 0-21.8 13-33.5 23.7z" fill="#AAAAFD"/>
  <path d="m447.5 245.1 28.5 50.9 33 62.3-35.5 43-1.5-8.3 0.5-1.5 22.5-24.5-23-17-20-42s-3.3-54.9-4.5-62.9z" fill="url(#SVGID_10_)"/>
  <polygon points="472 386.5 478 393 495 366 476 387" fill="#0ff"/>
  <polygon points="441 332.1 481 355.1 484 350.6 483 342.9 446 325.1" fill="url(#SVGID_11_)"/>
  <path d="m402 245 54 28 32 60-47-26-38-63" fill="#8D8BC1" opacity=".47"/>
  <path d="m110 588c1.6 0.7 2.8 1.7 4 2l79-27-2-4-81 29z" fill="url(#SVGID_13_)"/>
  <polygon points="192 562 203 590 199 590 190 566" fill="#8cf"/>
  <polygon points="111 589 131 591 583 611 581 611" fill="#555BCD"/>
  <path d="m196 546-1-105 6.5-14 3.5 108-9 12" fill="#320066"/>
  <polygon points="199.5 430.5 198 546.4 235 483 264.9 421.5 245 421.5" fill="url(#SVGID_14_)"/>
  <!-- Dark background fills -->
  <path d="m108 591.9 83.1 3.1 394.9 14 64-34v239h-645v-252h134l-31 29.9z" fill="url(#SVGID_15_)"/>
  <path d="m586 610 65-34 241 23v215h-282l-23-203" fill="url(#SVGID_16_)"/>
  <polyline points="195 559 563 576 468 398"/>
  <polygon points="145 521 188.1 551.7 108.9 584"/>
</svg>
