<svg xmlns="http://www.w3.org/2000/svg" viewBox="0 0 150 98.4">
<!-- SVG created with Arrow, by QuiverAI (https://quiver.ai) -->
  <style type="text/css">.cls-0 {fill:#020203;}
.cls-1 {fill:#161A27;}
.cls-2 {fill:#7E35B5;}
.cls-3 {fill:#5133A6;}
.cls-4 {fill:#1F83DF;}
.cls-5 {fill:#34AE5C;}
.cls-6 {fill:#FFDC2E;}
.cls-7 {fill:#EB312D;}
.cls-8 {fill:#FFFFFF;}</style>
  <polygon class="cls-1" points="93.9 39 74.9 6.5 50.9 47.7 6.8 47.8"/>
  <polyline class="cls-1" points="49.2 50.6 24.6 91.9 125.1 91.8 107.1 61.1 52.4 50.5"/>
  <polygon class="cls-2" points="94 39 95.2 41.3 133.2 18.2 126.2 9.5"/>
  <polygon class="cls-3" points="95.6 42 96.8 44.1 141.3 29.5 134.9 20.5"/>
  <polygon class="cls-4" points="97.3 44.8 98.5 46.9 143.1 42.3 143.1 32"/>
  <polygon class="cls-5" points="98.9 47.7 99.7 50.4 143.2 55 143.2 45"/>
  <polygon class="cls-6" points="101.2 51.4 103.1 54.6 143.2 67.1 143.2 57.7"/>
  <polygon class="cls-7" points="103.8 55.8 106.9 61 143.2 82.5 143.2 70.1"/>
  <polygon class="cls-8" points="52.4 47.7 93.9 39 106.9 61 52.4 50.5 6.8 50.5 6.8 47.8"/>
</svg>