<svg xmlns="http://www.w3.org/2000/svg" viewBox="0 0 150 80">
  <!-- Generated with QuiverAI Arrow 1.1, lightly recolored for dark/light mode -->
  <style type="text/css">.cls-1 {fill:none;stroke:#64748B;stroke-width:1.6477;}
.cls-2 {fill:none;stroke:#94A3B8;stroke-width:1.4199;}
.cls-3 {fill:#8335A0;}
.cls-4 {fill:#4265BD;}
.cls-5 {fill:#4BBA49;}
.cls-6 {fill:#F6EC1D;}
.cls-7 {fill:#F6931D;}
.cls-8 {fill:#EA2227;}
.cls-9 {fill:#F2DD1C;}</style>
  <polygon class="cls-1" points="33.3 70.8 69.3 9.6 104.1 70.8"/>
  <path class="cls-2" d="m53.3 37-46 10.9"/>
  <path class="cls-3" d="m53.4 38.3 89 30v-6l-88-25.7c-0.2 0.2-1 1.7-1 1.7z"/>
  <path class="cls-4" d="m54 37.2 88.3 19.8v5.2l-88.6-24.4c0-0.1 0.3-0.6 0.3-0.6z"/>
  <polygon class="cls-5" points="54.7 36.2 142.3 51.4 142.3 56.7 54.2 36.8"/>
  <polyline class="cls-6" points="55.2 35.3 142.3 45.9 142.3 51.4 53.8 37.4"/>
  <polygon class="cls-7" points="55.9 34.3 142.3 40.6 142.3 46 55.3 36"/>
  <polygon class="cls-8" points="56.4 33.4 142.3 35.2 142.3 40.6 55.9 34.3"/>
  <polyline class="cls-9" points="56 34.7 55.3 36 142.3 43.1"/>
</svg>
